<?xml version="1.0" standalone="no"?><!DOCTYPE svg PUBLIC "-//W3C//DTD SVG 1.1//EN" "http://www.w3.org/Graphics/SVG/1.1/DTD/svg11.dtd"><svg class="icon" height="512" viewBox="0 0 1024 1024" version="1.1" xmlns="http://www.w3.org/2000/svg"><path d="M831.43731 128.488373l-638.870526 0c-34.947953 0-64.078411 28.686343-64.078411 64.074318l0 638.870526c0 34.947953 28.690436 64.078411 64.078411 64.078411l638.870526 0c34.94386 0 64.074318-28.690436 64.074318-64.078411l0-638.870526C895.511627 157.61883 866.825284 128.488373 831.43731 128.488373zM385.761877 620.661815l-51.137681 38.349423L224.366024 512l110.258173-147.012262 51.137681 38.349423-89.488127 108.662839L385.761877 620.661815zM499.214812 639.83755 435.297061 607.877651l95.877651-223.715201 63.918775 31.958876L499.214812 639.83755zM690.971138 659.012262l-51.133587-38.349423 89.487104-108.662839-89.487104-108.662839 51.133587-38.349423 110.262266 147.012262L690.971138 659.012262z" /></svg>